{
	"asset":{
		"generator":"Khronos glTF Blender I/O v4.1.63",
		"version":"2.0"
	},
	"scene":0,
	"scenes":[
		{
			"name":"Scene",
			"nodes":[
				0
			]
		}
	],
	"nodes":[
		{
			"mesh":0,
			"name":"Sphere",
			"scale":[
				1000,
				1000,
				1000
			]
		}
	],
	"materials":[
		{
			"doubleSided":true,
			"name":"Material.002",
			"pbrMetallicRoughness":{
				"baseColorTexture":{
					"index":0
				},
				"metallicFactor":0,
				"roughnessFactor":0.5
			}
		}
	],
	"meshes":[
		{
			"name":"Sphere.001",
			"primitives":[
				{
					"attributes":{
						"POSITION":0,
						"NORMAL":1,
						"TEXCOORD_0":2
					},
					"indices":3,
					"material":0
				}
			]
		}
	],
	"textures":[
		{
			"sampler":0,
			"source":0
		}
	],
	"images":[
		{
			"mimeType":"image/png",
			"name":"4k_ceres_fictional",
			"uri":"4k_ceres_fictional.png"
		}
	],
	"accessors":[
		{
			"bufferView":0,
			"componentType":5126,
			"count":130553,
			"max":[
				1,
				1,
				1
			],
			"min":[
				-1,
				-1,
				-1
			],
			"type":"VEC3"
		},
		{
			"bufferView":1,
			"componentType":5126,
			"count":130553,
			"type":"VEC3"
		},
		{
			"bufferView":2,
			"componentType":5126,
			"count":130553,
			"type":"VEC2"
		},
		{
			"bufferView":3,
			"componentType":5125,
			"count":195072,
			"type":"SCALAR"
		}
	],
	"bufferViews":[
		{
			"buffer":0,
			"byteLength":1566636,
			"byteOffset":0,
			"target":34962
		},
		{
			"buffer":0,
			"byteLength":1566636,
			"byteOffset":1566636,
			"target":34962
		},
		{
			"buffer":0,
			"byteLength":1044424,
			"byteOffset":3133272,
			"target":34962
		},
		{
			"buffer":0,
			"byteLength":780288,
			"byteOffset":4177696,
			"target":34963
		}
	],
	"samplers":[
		{
			"magFilter":9729,
			"minFilter":9987
		}
	],
	"buffers":[
		{
			"byteLength":4957984,
			"uri":"Planet1.bin"
		}
	]
}
