{
	"asset":{
		"generator":"Khronos glTF Blender I/O v4.1.63",
		"version":"2.0"
	},
	"scene":0,
	"scenes":[
		{
			"name":"Scene",
			"nodes":[
				0
			]
		}
	],
	"nodes":[
		{
			"mesh":0,
			"name":"Plane",
			"rotation":[
				0,
				0,
				-0.2701837122440338,
				0.9628087878227234
			],
			"scale":[
				-1825.276611328125,
				-1825.276611328125,
				-1825.2760009765625
			],
			"translation":[
				0,
				-0.050774574279785156,
				0
			]
		}
	],
	"materials":[
		{
			"doubleSided":true,
			"name":"Material.003",
			"pbrMetallicRoughness":{
				"baseColorFactor":[
					0.800000011920929,
					0.800000011920929,
					0.800000011920929,
					1
				],
				"metallicFactor":0,
				"roughnessFactor":0.5
			}
		}
	],
	"meshes":[
		{
			"name":"Plane",
			"primitives":[
				{
					"attributes":{
						"POSITION":0,
						"NORMAL":1,
						"TEXCOORD_0":2
					},
					"indices":3,
					"material":0
				}
			]
		}
	],
	"accessors":[
		{
			"bufferView":0,
			"componentType":5126,
			"count":1087,
			"max":[
				1,
				1,
				1
			],
			"min":[
				-1.0000004768371582,
				-1,
				-1
			],
			"type":"VEC3"
		},
		{
			"bufferView":1,
			"componentType":5126,
			"count":1087,
			"type":"VEC3"
		},
		{
			"bufferView":2,
			"componentType":5126,
			"count":1087,
			"type":"VEC2"
		},
		{
			"bufferView":3,
			"componentType":5123,
			"count":5952,
			"type":"SCALAR"
		}
	],
	"bufferViews":[
		{
			"buffer":0,
			"byteLength":13044,
			"byteOffset":0,
			"target":34962
		},
		{
			"buffer":0,
			"byteLength":13044,
			"byteOffset":13044,
			"target":34962
		},
		{
			"buffer":0,
			"byteLength":8696,
			"byteOffset":26088,
			"target":34962
		},
		{
			"buffer":0,
			"byteLength":11904,
			"byteOffset":34784,
			"target":34963
		}
	],
	"buffers":[
		{
			"byteLength":46688,
			"uri":"Planet.bin"
		}
	]
}
