{
	"asset":{
		"generator":"Khronos glTF Blender I/O v4.1.63",
		"version":"2.0"
	},
	"scene":0,
	"scenes":[
		{
			"name":"Scene",
			"nodes":[
				0
			]
		}
	],
	"nodes":[
		{
			"mesh":0,
			"name":"Sphere"
		}
	],
	"materials":[
		{
			"doubleSided":true,
			"name":"Material.001",
			"pbrMetallicRoughness":{
				"baseColorTexture":{
					"index":0
				},
				"metallicFactor":0,
				"roughnessFactor":0.5
			}
		}
	],
	"meshes":[
		{
			"name":"Sphere",
			"primitives":[
				{
					"attributes":{
						"POSITION":0,
						"NORMAL":1,
						"TEXCOORD_0":2
					},
					"indices":3,
					"material":0
				}
			]
		}
	],
	"textures":[
		{
			"sampler":0,
			"source":0
		}
	],
	"images":[
		{
			"mimeType":"image/png",
			"name":"Planet_2_d",
			"uri":"Planet_2_d.png"
		}
	],
	"accessors":[
		{
			"bufferView":0,
			"componentType":5126,
			"count":130557,
			"max":[
				499.99993896484375,
				500,
				499.99993896484375
			],
			"min":[
				-499.99993896484375,
				-500,
				-499.99993896484375
			],
			"type":"VEC3"
		},
		{
			"bufferView":1,
			"componentType":5126,
			"count":130557,
			"type":"VEC3"
		},
		{
			"bufferView":2,
			"componentType":5126,
			"count":130557,
			"type":"VEC2"
		},
		{
			"bufferView":3,
			"componentType":5125,
			"count":195072,
			"type":"SCALAR"
		}
	],
	"bufferViews":[
		{
			"buffer":0,
			"byteLength":1566684,
			"byteOffset":0,
			"target":34962
		},
		{
			"buffer":0,
			"byteLength":1566684,
			"byteOffset":1566684,
			"target":34962
		},
		{
			"buffer":0,
			"byteLength":1044456,
			"byteOffset":3133368,
			"target":34962
		},
		{
			"buffer":0,
			"byteLength":780288,
			"byteOffset":4177824,
			"target":34963
		}
	],
	"samplers":[
		{
			"magFilter":9729,
			"minFilter":9987
		}
	],
	"buffers":[
		{
			"byteLength":4958112,
			"uri":"Planet3.bin"
		}
	]
}
